<?xml version="1.0" encoding="UTF-8" standalone="no"?>
<svg xmlns="http://www.w3.org/2000/svg" xmlns:xlink="http://www.w3.org/1999/xlink" version="1.1" width="128" height="128.00001" viewBox="148 367.5 128 128.00001"><g id="document" fill-opacity="0" fill="#ffffff" fill-rule="nonzero" font-family="none" font-weight="none" font-size="none"><rect x="809.375" y="1435.54688" transform="scale(0.18286,0.256)" width="700" height="500" id="Shape-1-1"/></g><g fill="#7cee8b" fill-rule="nonzero" stroke="none" stroke-width="1" stroke-linecap="butt" stroke-linejoin="miter" stroke-miterlimit="10" font-family="none" font-weight="none" font-size="none"><g id="stage"><g id="layer1-1"><path d="M273.96869,467.47906h-123.93716c-1.1211,0 -2.03153,0.91043 -2.03153,2.0313v16.0271c0,5.50208 4.46025,9.96255 9.96279,9.96255h108.07465c5.50209,0 9.96256,-4.46046 9.96256,-9.96255v-16.0271c-0.00045,-1.12042 -0.91066,-2.0313 -2.03131,-2.0313z" id="Path-1"/><path d="M152.18745,458.54684h119.74598c0.78,0 1.49129,-0.44413 1.83168,-1.1448c0.33903,-0.70089 0.24975,-1.53491 -0.23145,-2.14788l-25.63631,-32.57333c-1.89158,-2.40216 -4.77946,-3.80575 -7.83663,-3.80575h-10.383v17.18533c-0.01718,7.20082 -6.93164,11.85325 -17.61728,11.85325c-10.68564,0 -17.60056,-4.65198 -17.61706,-11.87179v-17.16725h-10.38548c-3.0574,0 -5.94573,1.40359 -7.83709,3.80575l-25.63338,32.57356c-0.48143,0.61342 -0.57093,1.44744 -0.23145,2.14788c0.33971,0.70135 1.05078,1.14503 1.83146,1.14503z" id="Path-1-1"/><path d="M202.93285,407.84627v28.19774c0.00429,1.83553 4.06058,3.32695 9.06658,3.32695c5.00578,0 9.06252,-1.49141 9.06681,-3.32695v-28.19978c7.16692,-3.40868 12.15848,-10.6562 12.15848,-19.11898c0,-11.72266 -9.50396,-21.22525 -21.22935,-21.22525c-11.71681,0 -21.22055,9.50236 -21.22055,21.22525c0.00023,8.46458 4.99156,15.71256 12.15803,19.12101z" id="Path-1-2"/></g></g></g></svg>