<svg xmlns="http://www.w3.org/2000/svg" xmlns:xlink="http://www.w3.org/1999/xlink" version="1.1" width="512" height="512" viewBox="-44 195.5 512 512"><g id="document" fill-opacity="0" fill="#fff" fill-rule="nonzero" font-family="none" font-weight="none" font-size="none"/><g fill="#696970" fill-rule="nonzero" font-family="none" font-weight="none" font-size="none"><g id="stage"><g id="layer1-1"><path d="M164 451.5c0-26.50967 21.49033-48 48-48 26.50967 0 48 21.49033 48 48 0 26.50967-21.49033 48-48 48-26.50967 0-48-21.49033-48-48z" id="Path-1"/><path d="M82.08154 412.34174c4.95923-3.37728 9.91846-.75457 9.91846 5.24543v19.8934 49.61623c0 4.5-3.71942 6.46703-7.43884 3.93406l-49.92165-33.99723c-4.54596-3.09585-4.54595-9.28754.00001-12.38339z" id="Path-1-1"/><path d="M341.91846 412.34174c-4.95923-3.37728-9.91846-.75457-9.91846 5.24543v19.8934 49.61623c0 4.5 3.71942 6.46703 7.43884 3.93406l49.92165-33.99723c4.54596-3.09585 4.54595-9.28754-.00001-12.38339z" id="Path-25523-1"/><path d="M251.15826 581.41846c3.37728-4.95923.75457-9.91846-5.24543-9.91846h-19.8934-49.61623c-4.5 0-6.46703 3.71942-3.93406 7.43884l33.99723 49.92165c3.09585 4.54596 9.28754 4.54595 12.38339-.00001z" id="Path-29313-1"/><path d="M251.15826 323.46126c3.37728 4.95923.75457 9.91846-5.24543 9.91846h-19.8934-49.61623c-4.5 0-6.46703-3.71942-3.93406-7.43884l33.99723-49.92165c3.09585-4.54596 9.28754-4.54595 12.38339.00001z" id="Path-30047-1"/><path d="M290 367.5c-.2619 2.08782.34189 2.82717 1.75736 4.24264 1.41547 1.41547 2.15482 2.01926 4.24264 1.75736h120c3.68816.17328 8.03667 1.54139 10.7429 3.55643 2.71742 2.02338 5.22429 5.73165 6.42366 9.01907.4621 1.57111.79577 3.68986.83344 5.4245v120c-.17328 3.68816-1.54139 8.03667-3.55643 10.7429-2.02338 2.71742-5.73165 5.22429-9.01907 6.42366-1.57111.4621-3.68986.79577-5.4245.83344h-120c-2.08782-.2619-2.82717.34189-4.24264 1.75736-1.41547 1.41547-2.01926 2.15482-1.75736 4.24264v120c-.17328 3.68816-1.54139 8.03667-3.55643 10.7429-2.02338 2.71742-5.73165 5.22429-9.01907 6.42366-1.57111.4621-3.68986.79577-5.4245.83344h-120c-3.68816-.17328-8.03667-1.54139-10.7429-3.55643-2.71742-2.02338-5.22429-5.73165-6.42366-9.01907-.4621-1.57111-.79577-3.68986-.83344-5.4245v-120c.2619-2.08782-.34189-2.82717-1.75736-4.24264-1.41547-1.41547-2.15482-2.01926-4.24264-1.75736h-120c-3.68816-.17328-8.03667-1.54139-10.7429-3.55643-2.71742-2.02338-5.22429-5.73165-6.42366-9.01907-.4621-1.57111-.79577-3.68986-.83344-5.4245v-120c.17328-3.68816 1.54139-8.03667 3.55643-10.7429 2.02338-2.71742 5.73165-5.22429 9.01907-6.42366 1.57111-.4621 3.68986-.79577 5.4245-.83344h120c2.08782.2619 2.82717-.34189 4.24264-1.75736 1.41547-1.41547 2.01926-2.15482 1.75736-4.24264v-120c.17328-3.68816 1.54139-8.03667 3.55643-10.7429 2.02338-2.71742 5.73165-5.22429 9.01907-6.42366 1.57111-.4621 3.68986-.79577 5.4245-.83344h120c3.68816.17328 8.03667 1.54139 10.7429 3.55643 2.71742 2.02338 5.22429 5.73165 6.42366 9.01907.4621 1.57111.79577 3.68986.83344 5.4245zM278 247.5c.03767-.78686-.01749-1.09879-.27641-1.81086-.3352-1.57197-.86754-2.05485-2.14735-3.00779-1.291-.96127-1.89774-1.35463-3.57624-1.18135h-120c-.78686-.03767-1.09879.01749-1.81086.27641-1.57197.3352-2.05485.86754-3.00779 2.14735-.96127 1.291-1.35463 1.89774-1.18135 3.57624v120c-.2619 4.5396-2.3444 9.80024-5.27208 12.72792-2.92768 2.92768-8.18832 5.01018-12.72792 5.27208h-120c-.78686-.03767-1.09879.01749-1.81086.27641-1.57197.3352-2.05485.86754-3.00779 2.14735-.96127 1.291-1.35463 1.89774-1.18135 3.57624v120c-.03767.78686.01749 1.09879.27641 1.81086.3352 1.57197.86754 2.05485 2.14735 3.00779 1.291.96127 1.89774 1.35463 3.57624 1.18135h120c4.5396.2619 9.80024 2.3444 12.72792 5.27208 2.92768 2.92768 5.01018 8.18832 5.27208 12.72792v120c-.03767.78686.01749 1.09879.27641 1.81086.3352 1.57197.86754 2.05485 2.14735 3.00779 1.291.96127 1.89774 1.35463 3.57624 1.18135h120c.78686.03767 1.09879-.01749 1.81086-.27641 1.57197-.3352 2.05485-.86754 3.00779-2.14735.96127-1.291 1.35463-1.89774 1.18135-3.57624v-120c.2619-4.5396 2.3444-9.80024 5.27208-12.72792 2.92768-2.92768 8.18832-5.01018 12.72792-5.27208h120c.78686.03767 1.09879-.01749 1.81086-.27641 1.57197-.3352 2.05485-.86754 3.00779-2.14735.96127-1.291 1.35463-1.89774 1.18135-3.57624v-120c.03767-.78686-.01749-1.09879-.27641-1.81086-.3352-1.57197-.86754-2.05485-2.14735-3.00779-1.291-.96127-1.89774-1.35463-3.57624-1.18135h-120c-4.5396-.2619-9.80024-2.3444-12.72792-5.27208-2.92768-2.92768-5.01018-8.18832-5.27208-12.72792z" id="CompoundPath-1"/></g></g></g></svg>