<?xml version="1.0" encoding="UTF-8" standalone="no"?>
<svg xmlns="http://www.w3.org/2000/svg" xmlns:xlink="http://www.w3.org/1999/xlink" version="1.1" width="512" height="512" viewBox="-44 195.5 512 512"><g id="document" fill-opacity="0" fill="#ffffff" fill-rule="nonzero" font-family="none" font-weight="none" font-size="none"><rect x="-60.15625" y="190.91797" transform="scale(0.73143,1.024)" width="700" height="500" id="Shape-1-1"/></g><g fill="none" fill-rule="nonzero" font-family="none" font-weight="none" font-size="none"><g id="stage"><g id="layer1-1"><path d="M204.00001,293.5v-4c0,-1.28608 0.30348,-2.50129 0.84272,-3.5779c0.77406,-1.54543 2.03394,-2.80531 3.57937,-3.57937c1.07662,-0.53925 2.29182,-0.84272 3.5779,-0.84272c1.28608,0 2.50129,0.30348 3.5779,0.84272c1.54543,0.77406 2.80531,2.03394 3.57937,3.57937c0.53925,1.07662 0.84272,2.29182 0.84272,3.5779v4v108v4c0,1.28608 -0.30348,2.50129 -0.84272,3.5779c-0.77406,1.54543 -2.03394,2.80531 -3.57937,3.57937c-1.07662,0.53925 -2.29182,0.84272 -3.5779,0.84272c-1.28608,0 -2.50129,-0.30348 -3.5779,-0.84272c-1.54543,-0.77406 -2.80531,-2.03394 -3.57937,-3.57937c-0.53925,-1.07662 -0.84272,-2.29182 -0.84272,-3.5779v-4z" id="Path-1" fill="#ceccd0"/><path d="M370,443.50001h4c1.28608,0 2.50129,0.30348 3.5779,0.84272c1.54543,0.77406 2.80531,2.03394 3.57937,3.57937c0.53925,1.07662 0.84272,2.29182 0.84272,3.5779c0,1.28608 -0.30348,2.50129 -0.84272,3.5779c-0.77406,1.54543 -2.03394,2.80531 -3.57937,3.57937c-1.07662,0.53925 -2.29182,0.84272 -3.5779,0.84272h-4h-108h-4c-1.28608,0 -2.50129,-0.30348 -3.5779,-0.84272c-1.54543,-0.77406 -2.80531,-2.03394 -3.57937,-3.57937c-0.53925,-1.07662 -0.84272,-2.29182 -0.84272,-3.5779c0,-1.28608 0.30348,-2.50129 0.84272,-3.5779c0.77406,-1.54543 2.03394,-2.80531 3.57937,-3.57937c1.07662,-0.53925 2.29182,-0.84272 3.5779,-0.84272h4z" id="Path-13077-1" fill="#ceccd0"/><path d="M4,511.5v-120c0,-5.36666 3.52292,-9.9105 8.38231,-11.44507c1.14159,-0.36051 2.35693,-0.55493 3.61769,-0.55493h124l72,72l-72,72h-124c-5.36666,0 -9.9105,-3.52292 -11.44507,-8.38231c-0.36051,-1.14159 -0.55493,-2.35693 -0.55493,-3.61769zM50,435.50001c-2.25523,0.11918 -5.26177,0.84619 -7.16059,1.6898c-2.58251,1.52209 -5.6275,4.56709 -7.1496,7.1496c-0.84358,1.89878 -1.68979,4.90534 -1.68979,7.16059c0,2.25523 0.84619,5.26177 1.6898,7.16059c1.52209,2.58251 4.56709,5.6275 7.1496,7.1496c1.89878,0.84358 4.90534,1.5706 7.16059,1.68979h116c2.25523,-0.11918 5.26177,-0.84619 7.16059,-1.6898c2.58251,-1.52209 5.6275,-4.56709 7.1496,-7.1496c0.84358,-1.89878 1.68979,-4.90534 1.68979,-7.16059c0,-2.25523 -0.84619,-5.26177 -1.6898,-7.16059c-1.52209,-2.58251 -4.56709,-5.6275 -7.1496,-7.1496c-1.89878,-0.84358 -4.90534,-1.5706 -7.16059,-1.68979z" id="CompoundPath-1" fill="#696970"/><path d="M140,523.5l72,-72l72,72v124c0,5.36667 -3.52292,9.9105 -8.38231,11.44507c-1.14159,0.3605 -2.35693,0.55493 -3.61769,0.55493h-120c-5.36667,0 -9.9105,-3.52292 -11.44507,-8.38231c-0.3605,-1.14159 -0.55493,-2.35693 -0.55493,-3.61769zM196.00001,613.5c0.11918,2.25523 0.84619,5.26177 1.6898,7.16059c1.52209,2.58251 4.56709,5.6275 7.1496,7.1496c1.89878,0.84358 4.90534,1.68979 7.16059,1.68979c2.25523,0 5.26177,-0.84619 7.16059,-1.6898c2.58251,-1.52209 5.6275,-4.56709 7.1496,-7.1496c0.84358,-1.89878 1.5706,-4.90534 1.68979,-7.16059v-116c-0.11918,-2.25523 -0.84619,-5.26177 -1.6898,-7.16059c-1.52209,-2.58251 -4.56709,-5.6275 -7.1496,-7.1496c-1.89878,-0.84358 -4.90534,-1.68979 -7.16059,-1.68979c-2.25523,0 -5.26177,0.84619 -7.16059,1.6898c-2.58251,1.52209 -5.6275,4.56709 -7.1496,7.1496c-0.84358,1.89878 -1.5706,4.90534 -1.68979,7.16059z" id="CompoundPath-1-1" fill="#696970"/><path d="M212,451.5l-72,-72v-124c0,-5.36667 3.52292,-9.9105 8.38231,-11.44507c1.14159,-0.3605 2.35693,-0.55493 3.61769,-0.55493h120c5.36667,0 9.9105,3.52292 11.44507,8.38231c0.3605,1.14159 0.55493,2.35693 0.55493,3.61769v124zM196.00002,405.50001c0.11918,2.25523 0.84619,5.26177 1.6898,7.16059c1.52209,2.58251 4.56708,5.6275 7.14959,7.1496c1.89878,0.84358 4.90535,1.68979 7.1606,1.68979c2.25523,0 5.26177,-0.84619 7.16059,-1.6898c2.58251,-1.52209 5.6275,-4.56709 7.1496,-7.1496c0.84358,-1.89878 1.57059,-4.90534 1.68978,-7.16059v-116c-0.11918,-2.25523 -0.84618,-5.26177 -1.68979,-7.16059c-1.52209,-2.58251 -4.56709,-5.6275 -7.1496,-7.1496c-1.89878,-0.84358 -4.90534,-1.68979 -7.16059,-1.68979c-2.25523,0 -5.26178,0.84619 -7.1606,1.6898c-2.58251,1.52209 -5.6275,4.56709 -7.1496,7.1496c-0.84358,1.89878 -1.57059,4.90534 -1.68978,7.16059z" id="CompoundPath-1-2" fill="#696970"/><path d="M212,451.5l72,-72h124c5.36667,0 9.9105,3.52292 11.44507,8.38231c0.3605,1.14159 0.55493,2.35693 0.55493,3.61769v120c0,5.36667 -3.52292,9.9105 -8.38231,11.44507c-1.14159,0.3605 -2.35693,0.55493 -3.61769,0.55493h-124zM257.99999,435.50001c-2.25523,0.11918 -5.26176,0.84619 -7.16058,1.6898c-2.58251,1.52209 -5.6275,4.56709 -7.1496,7.1496c-0.84358,1.89878 -1.68979,4.90535 -1.68979,7.1606c0,2.25523 0.84619,5.26176 1.6898,7.16058c1.52209,2.58251 4.56708,5.62751 7.14959,7.14961c1.89878,0.84358 4.90534,1.57059 7.16059,1.68978h116c2.25523,-0.11918 5.26177,-0.84619 7.16059,-1.6898c2.58251,-1.52209 5.62751,-4.56708 7.14961,-7.14959c0.84358,-1.89878 1.68979,-4.90535 1.68979,-7.1606c0,-2.25523 -0.84619,-5.26177 -1.6898,-7.16059c-1.52209,-2.58251 -4.56709,-5.62749 -7.1496,-7.14959c-1.89878,-0.84358 -4.90535,-1.57061 -7.1606,-1.6898z" id="CompoundPath-1-3" fill="#696970"/></g></g></g></svg>